<svg width="576" height="465" viewBox="0 0 576 465" fill="none" xmlns="http://www.w3.org/2000/svg">
<path d="M40.2379 446.194H512.296C527.498 439.012 539.424 428.83 543.177 407.333C549.363 360.947 518.146 314.829 471.955 295.629C404.563 274.527 408.027 249.212 401.614 198.336C399.242 179.521 391.793 161.484 379.644 146.128C324.362 76.2462 192.39 80.8339 132.424 151.74C121.46 164.244 114.44 179.545 112.44 195.437C102.909 233.677 106.081 263.234 98.6587 304.035C90.1181 343.116 34.3882 355.349 35.5365 431.795C35.6205 437.383 37.3033 442.134 40.2379 446.194Z" fill="#D0E6FD"/>
<path d="M7.89688 392.309C7.89688 394.298 6.12897 395.912 3.94842 395.912C1.76788 395.912 0 394.298 0 392.309C0 390.319 1.76788 388.706 3.94842 388.706C6.12897 388.706 7.89688 390.319 7.89688 392.309Z" fill="#D0E6FD"/>
<path d="M51.328 305.243C51.328 307.233 49.5601 308.846 47.3796 308.846C45.199 308.846 43.4312 307.233 43.4312 305.243C43.4312 303.254 45.199 301.641 47.3796 301.641C49.5601 301.641 51.328 303.254 51.328 305.243Z" fill="#D0E6FD"/>
<path d="M418.201 190.347C414.881 190.347 412.18 187.882 412.18 184.853C412.18 181.824 414.881 179.359 418.201 179.359C421.52 179.359 424.221 181.824 424.221 184.853C424.221 187.882 421.52 190.347 418.201 190.347ZM418.201 181.34C416.078 181.34 414.351 182.917 414.351 184.854C414.351 186.791 416.079 188.366 418.201 188.366C420.324 188.366 422.05 186.79 422.05 184.854C422.05 182.916 420.324 181.34 418.201 181.34Z" fill="#D0E6FD"/>
<path d="M569.98 412.816C566.66 412.816 563.959 410.351 563.959 407.322C563.959 404.293 566.66 401.828 569.98 401.828C573.3 401.828 576.001 404.293 576.001 407.322C576 410.351 573.3 412.816 569.98 412.816ZM569.98 403.808C567.857 403.808 566.13 405.385 566.13 407.321C566.13 409.258 567.858 410.834 569.98 410.834C572.103 410.834 573.829 409.257 573.829 407.321C573.829 405.385 572.102 403.808 569.98 403.808Z" fill="#92B3D6"/>
<path d="M33.2314 393.3C29.9117 393.3 27.2104 390.835 27.2104 387.806C27.2104 384.777 29.9117 382.312 33.2314 382.312C36.551 382.312 39.2523 384.777 39.2523 387.806C39.2523 390.835 36.551 393.3 33.2314 393.3ZM33.2314 384.293C31.1083 384.293 29.3818 385.869 29.3818 387.805C29.3818 389.743 31.1095 391.318 33.2314 391.318C35.3544 391.318 37.0809 389.741 37.0809 387.805C37.0821 385.869 35.3544 384.293 33.2314 384.293Z" fill="#D0E6FD"/>
<path d="M191.165 210.763C187.846 210.763 185.145 208.298 185.145 205.269C185.145 202.24 187.846 199.775 191.165 199.775C194.485 199.775 197.186 202.24 197.186 205.269C197.186 208.298 194.485 210.763 191.165 210.763ZM191.165 201.756C189.042 201.756 187.316 203.332 187.316 205.269C187.316 207.206 189.044 208.782 191.165 208.782C193.288 208.782 195.015 207.205 195.015 205.269C195.015 203.332 193.288 201.756 191.165 201.756Z" fill="#92B3D6"/>
<path d="M448.137 254.806C448.137 256.796 446.369 258.409 444.188 258.409C442.008 258.409 440.24 256.796 440.24 254.806C440.24 252.816 442.008 251.203 444.188 251.203C446.37 251.203 448.137 252.816 448.137 254.806Z" fill="#D0E6FD"/>
<path d="M365.142 227.662C365.142 229.652 363.375 231.265 361.194 231.265C359.013 231.265 357.246 229.652 357.246 227.662C357.246 225.672 359.013 224.059 361.194 224.059C363.375 224.059 365.142 225.672 365.142 227.662Z" fill="#92B3D6"/>
<path d="M463.273 246.399C463.273 248.389 461.505 250.002 459.325 250.002C457.144 250.002 455.376 248.389 455.376 246.399C455.376 244.41 457.144 242.796 459.325 242.796C461.505 242.797 463.273 244.41 463.273 246.399Z" fill="#D0E6FD"/>
<path d="M555.73 407.322C555.73 409.312 553.962 410.925 551.782 410.925C549.601 410.925 547.833 409.312 547.833 407.322C547.833 405.332 549.601 403.719 551.782 403.719C553.964 403.719 555.73 405.332 555.73 407.322Z" fill="#D0E6FD"/>
<path d="M375.096 191.157C375.096 192.815 373.623 194.159 371.806 194.159C369.989 194.159 368.516 192.814 368.516 191.157C368.516 189.499 369.989 188.154 371.806 188.154C373.622 188.155 375.096 189.5 375.096 191.157Z" fill="white"/>
<path d="M77.6539 325.66C77.6539 327.318 76.1815 328.662 74.3641 328.662C72.5468 328.662 71.0732 327.318 71.0732 325.66C71.0732 324.001 72.5468 322.658 74.3641 322.658C76.1803 322.658 77.6539 324.001 77.6539 325.66Z" fill="#92B3D6"/>
<path d="M188.206 166.952L177.715 164.421L175.439 154.544L173.163 164.421L162.671 166.952L173.163 169.483L175.439 179.359L177.715 169.483L188.206 166.952Z" fill="white"/>
<path d="M232.955 224.64L227.022 223.21L225.735 217.624L224.449 223.21L218.515 224.64L224.449 226.072L225.735 231.657L227.022 226.072L232.955 224.64Z" fill="white"/>
<path d="M315.451 183.934C301.575 212.555 281.684 209.109 262.66 186.565C262.374 186.236 262.357 186.066 262.795 185.836C266.633 183.57 267.418 178.959 268.152 175.148C268.748 169.614 268.878 165.249 268.834 161.803C268.621 142.095 262.965 152.156 307.685 143.533H308.388C307.985 148.029 307.677 152.738 307.768 157.445C307.945 166.833 309.702 176.221 315.451 183.934Z" fill="#FAAF90"/>
<path d="M307.769 157.445C294.441 171.867 277.895 166.552 268.835 161.803C268.622 142.095 262.966 152.156 307.686 143.533H308.389C307.986 148.029 307.678 152.738 307.769 157.445Z" fill="#C67860"/>
<path d="M314.104 182.998C314.182 182.998 314.262 182.998 314.34 182.998C324.493 188.801 336.546 191.161 346.122 197.827C333.436 196.687 338.668 190.034 335.94 209.487C332.347 246.011 328.786 282.539 325.189 319.063C323.199 339.651 321.125 360.232 319.14 380.821C301.903 386.787 281.056 388.976 262.647 393.705C261.737 393.899 261.469 393.758 261.395 392.893C259.66 375.348 257.762 357.814 256.001 340.27C251 292.047 246.106 243.814 241.064 195.595C240.985 194.866 241.189 194.519 241.899 194.187C248.61 191.056 255.307 187.901 261.985 184.715C262.729 184.36 263.093 184.442 263.61 185.031C284.657 209.007 294.843 206.39 314.104 182.998Z" fill="#AECFED"/>
<path d="M288.16 206.076C288.238 206.076 288.316 206.076 288.394 206.076C306.953 222.005 301.011 216.903 292.784 235.368C295.502 244.789 296.836 254.425 297.942 264.089C301.578 297.626 301.88 331.376 301.977 365.038C301.004 367.611 303.318 374.295 300.52 375.209C297.197 375.277 279.38 380.895 279.243 377.964C279.877 330.342 283.52 282.791 287.174 235.295C277.066 215.926 271.943 225.924 288.16 206.076Z" fill="#C24846"/>
<path d="M323.272 228.768C322.773 228.314 322.138 228.091 321.514 227.809C320.87 227.519 320.23 227.222 319.593 226.92C318.373 226.342 317.166 225.744 315.971 225.127C313.552 223.878 311.173 222.565 308.852 221.171C304.267 218.418 299.86 215.408 295.722 212.118C294.544 211.181 293.394 210.216 292.24 209.255C291.11 208.314 290.015 207.329 288.797 206.48C288.647 206.375 288.466 206.438 288.359 206.558C288.295 206.576 288.23 206.606 288.169 206.661C287.202 207.532 286.39 208.594 285.562 209.574C284.734 210.553 283.885 211.515 283.017 212.465C281.261 214.384 279.443 216.255 277.545 218.058C273.788 221.626 269.781 224.964 265.501 228.004C263.073 229.729 260.52 231.284 258.026 232.925C257.255 233.431 257.932 234.566 258.786 234.111C261.173 232.84 263.417 231.321 265.61 229.79C267.817 228.248 269.964 226.637 272.039 224.949C276.129 221.623 279.964 218.019 283.42 214.139C284.391 213.049 285.337 211.94 286.259 210.815C287.132 209.749 288.079 208.635 288.733 207.434C290.253 209.284 292.18 210.901 294.022 212.464C296.078 214.208 298.205 215.884 300.396 217.486C304.737 220.661 309.35 223.539 314.187 226.052C315.543 226.757 316.917 227.437 318.303 228.091C319.025 228.431 319.75 228.765 320.479 229.09C321.225 229.423 321.933 229.803 322.769 229.88C323.404 229.935 323.679 229.138 323.272 228.768Z" fill="#617ABC"/>
<path d="M295.379 447.78C291.009 446.934 286.653 444.554 282.31 444.364C270.798 447.881 259.206 451.225 247.466 454.061C215.333 461.26 181.499 468.124 148.473 462.214C69.79 444.126 111.755 288.816 175.756 225.297C176.146 224.91 176.537 224.528 176.93 224.147C189.495 211.95 202.877 203.314 216.343 199.949C219.747 199.099 250.388 187.979 251.255 191.005C263.831 252.219 263.93 317.241 269.351 379.247C269.4 380.3 298.793 375.25 314.579 372.884C322.321 312.886 320.723 248.521 327.261 188.001C357.9 193.428 383.044 206.41 403.328 224.207C403.722 224.552 404.115 224.898 404.501 225.246C452.914 268.56 473.212 339.506 474.28 399.798C479.573 491.306 356.59 463.795 295.379 447.78Z" fill="#F8ECEC"/>
<path d="M198.216 353.589C217.744 357.987 235.125 367.529 248.439 381.277C250.53 383.851 235.541 385.722 233.309 386.451C220.834 388.82 208.184 390.23 195.568 391.742C194.778 391.917 194.659 391.631 194.61 391.005C194.043 378.481 196.045 365.992 197.742 353.588C197.901 353.589 198.059 353.589 198.216 353.589Z" fill="#FAAF90"/>
<path d="M419.876 385.349C428.463 393.292 390.376 400.695 384.888 404.241C376.366 407.679 367.358 409.711 358.093 410.8C354.807 410.776 344.088 412.84 339.069 411.799C337.923 411.565 337.077 411.168 336.682 410.547C336.308 404.075 335.21 397.641 333.417 391.37C332.64 388.629 331.724 385.919 330.683 383.253C331.308 382.872 331.941 382.493 332.576 382.12C348.978 372.458 367.637 365.677 387.234 364.508C394.185 364.473 416.39 362.016 419.026 368.553C418.64 370.688 416.209 370.474 414.286 371.001C421.41 373.405 424.956 377.133 414.997 378.369C418.335 379.431 426.487 382.747 419.876 385.349Z" fill="#FAAF90"/>
<path d="M419.758 385.469C418.365 385.057 416.905 384.981 415.452 384.878C413.998 384.775 412.541 384.729 411.083 384.711C408.169 384.675 405.251 384.766 402.348 384.994C396.528 385.451 390.752 386.405 385.132 387.861C383.539 388.273 381.959 388.726 380.393 389.219C379.645 389.454 378.835 389.649 378.132 389.985C377.786 390.15 377.469 390.37 377.131 390.548C376.732 390.758 376.32 390.935 375.931 391.162C375.486 391.422 375.776 392.02 376.284 391.925C376.997 391.793 377.688 391.605 378.408 391.491C379.126 391.377 379.799 391.106 380.486 390.887C381.83 390.458 383.185 390.058 384.551 389.688C387.313 388.939 390.114 388.311 392.942 387.806C398.521 386.811 404.205 386.307 409.89 386.283C411.48 386.276 413.068 386.323 414.656 386.374C416.306 386.426 417.963 386.615 419.608 386.463C420.219 386.407 420.382 385.654 419.758 385.469Z" fill="#C67860"/>
<path d="M416.187 378.09C415.509 377.938 414.859 377.775 414.166 377.693C413.396 377.602 412.625 377.539 411.851 377.487C410.371 377.385 408.89 377.337 407.406 377.334C404.439 377.327 401.482 377.488 398.537 377.816C392.7 378.467 386.959 379.705 381.432 381.54C379.85 382.064 378.288 382.638 376.746 383.253C376.392 383.395 376.039 383.539 375.687 383.684C375.259 383.862 374.932 384.104 374.542 384.335C373.866 384.733 373.123 385.048 372.605 385.623C372.468 385.775 372.539 386.066 372.799 386.051C373.478 386.01 374.06 385.766 374.695 385.56C375.063 385.439 375.423 385.375 375.796 385.281C376.166 385.187 376.526 384.989 376.876 384.847C378.164 384.32 379.468 383.83 380.787 383.374C383.498 382.434 386.267 381.637 389.078 380.982C394.695 379.672 400.454 378.939 406.247 378.752C407.857 378.699 409.469 378.698 411.08 378.718C411.917 378.729 412.752 378.76 413.589 378.783C414.432 378.806 415.252 378.764 416.093 378.739C416.487 378.725 416.595 378.181 416.187 378.09Z" fill="#C67860"/>
<path d="M413.769 370.73C412.466 370.233 410.889 370.21 409.495 370.101C408.032 369.986 406.572 369.912 405.104 369.889C402.175 369.843 399.247 369.921 396.328 370.145C390.472 370.591 384.671 371.534 379.011 372.972C377.408 373.379 375.817 373.826 374.24 374.312C372.633 374.806 371.089 375.28 369.687 376.168C369.106 376.536 369.48 377.26 370.149 377.17C370.882 377.07 371.585 376.965 372.287 376.741C372.977 376.521 373.666 376.292 374.358 376.075C375.743 375.641 377.14 375.237 378.546 374.863C381.294 374.132 384.078 373.517 386.888 373.018C392.561 372.012 398.327 371.466 404.105 371.379C405.701 371.355 407.299 371.363 408.896 371.383C409.694 371.393 410.49 371.414 411.288 371.43C412.121 371.448 412.947 371.495 413.768 371.34C414.142 371.269 414.049 370.837 413.769 370.73Z" fill="#C67860"/>
<path d="M205.121 293.227C204.837 303.317 203.955 313.396 202.736 323.424C202.122 328.456 201.506 333.511 200.593 338.505C200.143 340.992 199.806 343.497 199.332 345.984C199.098 347.223 198.806 348.443 198.601 349.693C198.4 350.937 198.143 352.171 197.928 353.414C197.822 354.039 196.637 353.887 196.72 353.265C196.875 352.055 196.985 350.847 197.151 349.641C197.491 347.185 197.643 344.716 197.972 342.256C198.298 339.834 198.559 337.409 198.851 334.981C199.437 330.08 200.115 325.185 200.668 320.28C201.774 310.494 202.561 300.672 202.743 290.838C202.921 281.004 202.489 271.148 201.171 261.384C200.009 252.776 198.434 243.749 193.289 236.278C189.409 230.647 182.993 226.274 175.754 225.296C176.144 224.909 176.535 224.526 176.928 224.146C180.68 224.401 184.363 225.845 187.43 227.756C191.124 230.063 194.134 233.273 196.33 236.82C201.27 244.799 202.682 254.291 203.814 263.256C205.072 273.201 205.4 283.226 205.121 293.227Z" fill="#CCACAC"/>
<path d="M271.065 378.714C266.058 361.514 261.006 344.328 256.296 327.058C251.587 309.79 247.12 292.466 242.897 275.094C240.596 265.633 238.371 256.155 236.216 246.665C243.539 243.709 250.861 240.75 258.17 237.765C258.882 237.474 258.921 236.492 258.413 236.042C248.304 227.096 239.041 217.43 230.513 207.207C228.144 204.367 225.917 201.43 223.408 198.693C222.905 198.143 221.999 198.845 222.354 199.436C224.052 202.267 226.125 204.884 228.201 207.495C230.262 210.089 232.386 212.636 234.574 215.142C238.95 220.15 243.538 225.007 248.315 229.7C250.653 231.998 253.044 234.251 255.475 236.466C248.37 239.308 241.277 242.172 234.185 245.037C233.669 245.246 233.515 245.86 233.617 246.31C237.571 263.735 241.768 281.115 246.208 298.441C250.65 315.768 255.334 333.044 260.26 350.262C263.034 359.954 265.868 369.632 268.898 379.26C269.296 380.526 271.439 379.993 271.065 378.714Z" fill="#CCACAC"/>
<path d="M354.365 196.391C352.59 199.04 351.223 201.891 349.645 204.642C348.062 207.401 346.37 210.11 344.548 212.744C340.902 218.014 336.756 222.996 332.173 227.619C329.565 230.249 326.812 232.757 323.934 235.142C323.21 235.742 323.643 236.773 324.479 237.026C330.926 238.968 339.571 241.827 341.449 248.566C342.078 250.82 341.74 253.183 341.308 255.44C340.845 257.861 340.339 260.275 339.845 262.69C338.85 267.549 337.833 272.404 336.793 277.256C332.632 296.662 328.102 316.002 323.212 335.266C320.461 346.104 317.499 356.891 314.632 367.703C314.261 369.101 316.595 369.693 316.997 368.297C322.653 348.64 327.551 328.768 332.221 308.898C334.546 299.012 336.773 289.105 338.905 279.183C339.971 274.222 341.012 269.256 342.031 264.286C342.55 261.751 343.068 259.215 343.569 256.677C344.024 254.37 344.459 252.013 344.163 249.664C343.165 241.737 334.667 237.895 327.158 235.481C336.786 227.208 344.97 217.44 351.004 206.697C352.777 203.539 354.559 200.272 355.425 196.799C355.569 196.22 354.715 195.869 354.365 196.391Z" fill="#CCACAC"/>
<path d="M404.501 225.245C403.959 225.456 403.426 225.687 402.911 225.937C399.11 227.761 395.836 230.268 393.273 233.419C390.411 236.936 388.496 240.991 387.132 245.17C385.64 249.734 384.721 254.453 383.884 259.146C383.006 264.055 382.309 268.988 381.768 273.938C380.678 283.89 380.228 293.898 380.185 303.897C380.147 313.939 380.533 323.981 381.128 334.009C381.725 344.04 382.532 354.065 383.354 364.082C383.475 365.533 380.995 365.522 380.882 364.082C380.779 362.814 380.68 361.55 380.578 360.282C379.772 350.075 378.98 339.868 378.447 329.645C377.917 319.438 377.633 309.22 377.826 299.002C378.016 288.871 378.693 278.74 380.053 268.677C380.738 263.62 381.593 258.58 382.658 253.575C383.635 248.967 384.853 244.38 386.852 240.04C388.658 236.117 391.111 232.403 394.45 229.395C396.971 227.122 399.955 225.191 403.327 224.206C403.72 224.551 404.115 224.897 404.501 225.245Z" fill="#CCACAC"/>
<path d="M338.624 425.659C338.568 426.183 338.29 426.527 337.743 426.716C333.858 428.063 329.963 429.403 326.073 430.738C319.232 433.079 312.394 435.42 305.556 437.761C302.105 438.941 298.649 440.122 295.199 441.302C291.786 442.466 288.396 443.761 284.91 444.724C283.829 445.021 283.082 443.473 284.133 443.032C287.927 441.456 291.917 440.232 295.811 438.881C302.675 436.5 309.539 434.123 316.406 431.747C323.035 429.45 329.669 427.156 336.307 424.878C336.728 420.979 336.901 417.074 336.793 413.156C336.771 412.284 336.732 411.417 336.681 410.545C336.307 404.073 335.209 397.639 333.416 391.368C332.639 388.627 331.723 385.917 330.682 383.251C330.361 382.427 330.026 381.604 329.679 380.788C328.963 379.1 328.191 377.432 327.365 375.784C326.615 374.291 325.785 372.829 325 371.352C322.021 371.95 319.048 372.565 316.07 373.162C315.322 373.309 315.028 372.334 315.752 372.121C318.935 371.19 322.122 370.275 325.299 369.344C325.737 369.217 326.249 369.431 326.479 369.78C327.664 371.606 328.654 373.563 329.609 375.496C330.569 377.437 331.463 379.406 332.283 381.399C332.383 381.637 332.478 381.878 332.574 382.12C335.322 388.933 337.197 396.011 338.244 403.206C338.657 406.054 338.935 408.922 339.069 411.798C339.288 416.421 339.145 421.06 338.624 425.659Z" fill="#CCACAC"/>
<path d="M312.246 179.088C359.19 194.424 362.248 257.522 367.708 296.095C367.809 297.124 367.463 297.413 366.421 297.414C363.922 297.418 364.3 298.012 364.04 295.467C358.956 259.284 357.262 216.565 326.631 189.758C323.051 186.937 318.958 184.889 314.637 183.207C312.706 182.572 313.002 180.634 312.246 179.088Z" fill="#43385A"/>
<path d="M363.761 284.951C382.816 284.995 382.792 311.496 363.734 311.522C344.679 311.463 344.716 284.956 363.761 284.951Z" fill="#43385A"/>
<path d="M366.12 288.429C379.774 288.46 379.757 307.451 366.1 307.468C352.447 307.426 352.473 288.432 366.12 288.429Z" fill="#786E90"/>
<path d="M266.517 181.498C266.256 183.226 265.371 184.192 263.552 185.036C255.898 188.648 249.837 194.021 244.806 200.323C236.783 210.531 230.905 226.048 228.118 241.161C226.212 251.508 225.751 261.669 227.055 269.802C239.497 274.833 236.385 290.642 237.934 300.839C237.839 302.586 237.913 304.642 238.074 306.912C239.093 321.37 243.744 344.426 232.056 350.566C229.842 351.917 227.78 349.104 230.146 347.893C239.18 342.497 235.003 330.95 235.624 322.675C235.194 317.656 235.047 312.57 234.869 307.475C234.522 297.508 234.065 287.518 231.196 277.975C218.389 261.79 212.034 286.623 209.573 306.14C208.583 313.972 208.226 320.948 208.326 324.069C208.395 331.437 208.079 339.213 210.858 346.209C211.452 348.467 215.199 347.516 215.295 349.794C214.999 352.278 211.317 351.351 209.92 350.198C201.246 339.202 205.322 318.908 206.225 305.336C206.256 304.896 206.282 304.468 206.303 304.045C208.752 292.565 208.231 276.767 220.743 270.246C221.815 269.807 222.414 269.05 222.445 267.941C222.741 259.123 223.335 250.171 224.742 241.364C227.026 227.045 231.445 213.112 240.176 200.789C245.637 193.076 252.71 186.821 261.523 182.285C262.935 181.367 267.033 179.791 266.517 181.498Z" fill="#43385A"/>
<path d="M218.047 347.008C215.746 345.878 211.627 345.193 210.112 347.675C208.985 350.369 212.076 352.619 214.704 352.976C219.071 354.323 222.202 349.355 218.047 347.008Z" fill="#786E90"/>
<path d="M225.97 347.908C228.271 346.778 232.39 346.093 233.905 348.575C235.033 351.269 231.942 353.518 229.313 353.876C224.946 355.223 221.815 350.254 225.97 347.908Z" fill="#786E90"/>
<path d="M238.071 306.91C237.016 307.132 235.948 307.318 234.867 307.472C234.52 297.505 234.064 287.515 231.195 277.973C218.387 261.787 212.032 286.62 209.571 306.137C208.442 305.892 207.326 305.622 206.224 305.333C206.255 304.893 206.28 304.465 206.302 304.042C208.75 292.562 208.229 276.764 220.741 270.244C221.814 269.804 222.413 269.047 222.444 267.938C222.739 259.121 223.333 250.168 224.74 241.362C225.843 241.322 226.976 241.239 228.119 241.159C226.213 251.506 225.752 261.667 227.056 269.8C239.497 274.831 236.386 290.641 237.935 300.837C237.836 302.585 237.911 304.641 238.071 306.91Z" fill="#786E90"/>
<path d="M228.587 107.197C229.038 108.664 229.392 109.818 229.786 111.104C218.497 100.761 216.4 82.1047 215.942 68.0135C215.049 25.6401 253.325 -6.12839 299.034 10.0133C290.367 -8.49669 308.446 2.75429 313.247 11.1681C313.689 7.54332 316.195 -2.23717 321.386 3.24305C325.031 7.98383 323.237 14.4563 324.061 19.3785C354.794 37.1176 357.051 89.2274 332.264 111.919C333.626 109.045 334.671 106.079 336.487 103.14C329.961 102.807 327.084 110.344 320.4 107.493C319.143 107.074 317.949 107.211 316.745 107.687C312.731 108.58 311.604 112.73 307.949 113.855C282.31 120.262 249.111 127.226 228.587 107.197Z" fill="#5F2438"/>
<path d="M361.302 97.2771C361.698 108.928 350.003 123.738 335.967 118.567C335.151 118.276 335.078 118.601 334.93 119.139C329.232 140.36 306.534 154.813 283.299 156.185C256.518 153.78 240.383 139.597 231.222 118.614C217.203 123.693 204.942 108.425 206.23 96.6866C208.738 85.7912 223.703 92.1661 227.682 98.9626C224.36 87.9634 230.78 77.8725 233.94 67.4878C237.545 59.5837 247.347 54.9436 247.642 45.4254C254.987 53.1669 265.887 45.353 274.309 44.1279C264.447 68.7244 289.29 54.437 299.452 46.3032C295.487 55.6222 303.36 63.5809 313.01 58.0629C316.304 56.604 319.143 50.893 322.397 55.3632C333.085 66.7169 336.766 81.9147 338.442 96.4318C338.539 99.9674 343.543 94.4673 344.921 93.7992C350.1 89.3353 360.553 89.5041 361.302 97.2771Z" fill="#FAAF90"/>
<path d="M254.257 19.0254C253.899 19.0023 253.619 19.0642 253.271 19.1387C252.852 19.2289 252.464 19.2771 252.063 19.4376C251.354 19.7218 250.68 20.0784 250.035 20.4686C248.74 21.2521 247.54 22.1898 246.53 23.268C245.517 24.3483 244.667 25.5922 244.487 27.0291C244.324 28.3276 244.774 29.775 245.932 30.6047C246.5 31.0116 247.173 31.2455 247.855 31.2979C246.68 33.1638 245.654 35.142 245.267 37.2575C245.026 38.5811 244.998 39.9174 245.257 41.2421C245.375 41.8525 245.594 42.4451 245.902 42.9978C246.189 43.5139 246.501 44.0551 247.143 44.2145C247.207 44.2302 247.286 44.1956 247.3 44.1337C247.416 43.6062 247.178 43.1614 247.038 42.6486C246.88 42.0759 246.751 41.4896 246.673 40.9033C246.517 39.7139 246.624 38.4983 246.931 37.3362C247.593 34.8242 248.987 32.5943 250.468 30.418C251.016 29.6114 249.82 28.8919 249.099 29.4541C248.117 30.2176 246.723 29.4027 246.326 28.4902C245.773 27.2179 246.367 25.8408 247.187 24.793C248.077 23.6561 249.265 22.6597 250.512 21.8583C251.147 21.4503 251.815 21.0937 252.498 20.7591C252.87 20.5767 253.186 20.3721 253.532 20.1571C253.864 19.9505 254.202 19.8215 254.506 19.5729C254.748 19.3736 254.541 19.0432 254.257 19.0254Z" fill="#7C4158"/>
<path d="M290.872 32.6965C290.59 32.5087 290.057 32.4982 289.714 32.4961C289.315 32.494 288.895 32.6094 288.516 32.7101C287.689 32.9282 286.879 33.2167 286.091 33.5303C284.593 34.1271 283.159 34.856 281.813 35.7014C280.456 36.5541 279.187 37.5138 278.043 38.5962C277.453 39.1542 276.911 39.7384 276.401 40.3583C275.927 40.933 275.39 41.5844 275.204 42.2923C275.141 42.5315 275.44 42.7884 275.689 42.6332C276.303 42.2525 276.794 41.6767 277.295 41.1816C277.827 40.654 278.384 40.1412 278.955 39.6472C280.111 38.6455 281.365 37.7299 282.7 36.9327C284.003 36.1534 285.387 35.4706 286.83 34.9294C287.561 34.6546 288.301 34.4134 289.048 34.1774C289.424 34.0579 289.834 33.9561 290.17 33.7568C290.452 33.5901 290.84 33.4065 290.999 33.1307C291.09 32.966 291.029 32.8013 290.872 32.6965Z" fill="#7C4158"/>
<path d="M289.748 23.7453C288.553 23.8061 287.433 23.8858 286.289 24.2435C285.155 24.598 284.048 25.0406 282.995 25.564C281.954 26.0821 280.988 26.7051 280.072 27.3911C279.601 27.7435 279.156 28.1179 278.733 28.5176C278.513 28.7252 278.297 28.935 278.114 29.172C277.904 29.4447 277.867 29.6828 277.743 29.9838C277.51 30.5523 278.304 31.0149 278.824 30.7422C279.103 30.5953 279.345 30.5146 279.6 30.3163C279.797 30.1621 279.971 29.9838 280.154 29.815C280.54 29.4605 280.942 29.1154 281.351 28.7829C282.154 28.1316 283.021 27.5474 283.923 27.0146C284.819 26.4849 285.762 26.0192 286.741 25.629C287.764 25.221 288.796 24.7564 289.847 24.4197C290.226 24.2991 290.198 23.7222 289.748 23.7453Z" fill="#7C4158"/>
<path d="M332.985 34.9C332.893 34.1627 332.856 33.3824 332.258 32.8212C332.03 32.6062 331.614 32.6566 331.452 32.9156C331.116 33.4537 331.173 34.0148 331.222 34.6074C331.272 35.222 331.314 35.8408 331.308 36.4565C331.299 37.5022 331.131 38.5762 330.614 39.5212C329.758 41.084 327.69 42.3332 325.827 41.3127C325.388 41.0725 324.695 41.2823 324.589 41.7721C324.172 43.7156 323.493 45.6129 322.598 47.418C322.163 48.298 321.67 49.1591 321.126 49.9866C320.561 50.8467 320.013 51.7539 319.342 52.549C319.165 52.7587 319.537 52.9979 319.734 52.8248C320.532 52.12 321.328 51.4571 322.007 50.6485C322.71 49.8136 323.343 48.9388 323.901 48.0169C324.844 46.4583 325.533 44.7812 325.997 43.0538C328.19 43.6527 330.591 42.5524 331.82 40.7893C332.562 39.7268 332.91 38.4766 333.029 37.2337C333.104 36.4565 333.081 35.6741 332.985 34.9Z" fill="#7C4158"/>
<path d="M341.383 46.9392C341.228 46.6844 340.767 46.7945 340.777 47.0892C340.826 48.5408 340.89 49.9652 340.64 51.4073C340.514 52.1268 340.3 52.8191 340.045 53.5082C339.812 54.1417 339.443 54.9189 339.582 55.5943C339.62 55.7768 339.886 55.9153 340.076 55.8502C340.871 55.5796 341.333 54.7269 341.623 54.0494C341.956 53.2701 342.124 52.431 342.235 51.6045C342.446 50.0501 342.224 48.3164 341.383 46.9392Z" fill="#7C4158"/>
<path d="M223.614 64.1289C222.412 64.8705 221.678 66.1511 221.121 67.3458C220.52 68.6316 220.098 69.9574 219.85 71.3377C219.601 72.7158 219.493 74.1234 219.598 75.5194C219.692 76.7854 219.899 78.4446 220.936 79.3907C221.199 79.6309 221.65 79.5145 221.752 79.1946C221.944 78.5946 221.888 77.9265 221.861 77.3119C221.836 76.714 221.774 76.1183 221.745 75.5205C221.683 74.2702 221.727 73.0158 221.92 71.775C222.112 70.5342 222.455 69.3029 222.881 68.1125C223.306 66.9262 223.968 65.7578 224.175 64.5233C224.22 64.2527 223.919 63.9401 223.614 64.1289Z" fill="#7C4158"/>
<path d="M225.696 108.866C223.929 106.109 216.99 99.2392 213.539 100.659C215.509 102.734 218.699 103.691 220.637 105.903C219.345 105.604 213.928 105.403 214.567 107.303C217.09 107.528 219.738 106.729 222.268 107.586C224.091 109.382 224.849 111.874 226.655 113.654C228.829 113.977 226.331 109.619 225.696 108.866Z" fill="#C67860"/>
<path d="M340.401 107.465C342.168 104.709 349.107 97.8388 352.558 99.259C350.588 101.334 347.398 102.29 345.46 104.502C346.753 104.203 352.169 104.003 351.53 105.902C349.007 106.128 346.359 105.329 343.829 106.186C342.005 107.981 341.247 110.473 339.442 112.253C337.267 112.575 339.765 108.217 340.401 107.465Z" fill="#C67860"/>
<path d="M265.177 90.6291C265.177 92.5632 263.999 94.1323 262.544 94.1323C261.09 94.1323 259.912 92.5642 259.912 90.6291C259.912 88.694 261.09 87.126 262.544 87.126C263.999 87.126 265.177 88.695 265.177 90.6291Z" fill="black"/>
<path d="M311.244 90.6291C311.244 92.5632 310.066 94.1323 308.612 94.1323C307.158 94.1323 305.979 92.5642 305.979 90.6291C305.979 88.694 307.158 87.126 308.612 87.126C310.066 87.126 311.244 88.695 311.244 90.6291Z" fill="black"/>
<path d="M339.515 88.7931C337.769 86.0566 338.004 81.8172 333.375 81.1648C322.791 79.0304 311.712 79.086 300.981 80.2712C296.258 80.8292 292.73 84.4687 292.562 88.5896C292.236 88.4858 291.896 88.4092 291.565 88.3274C290.937 88.1711 290.303 88.04 289.664 87.932C288.376 87.7149 287.068 87.5775 285.76 87.5502C284.49 87.524 283.223 87.5953 281.965 87.7474C281.284 87.8292 280.604 87.9215 279.936 88.0694C279.563 88.1522 279.163 88.2456 278.808 88.4019C278.541 84.3585 275.05 80.8208 270.399 80.2701C259.668 79.085 248.589 79.0283 238.005 81.1638C233.377 81.8161 233.61 86.0556 231.865 88.792C223.903 91.5536 223.715 96.8818 232.248 91.0617C234.288 109.513 238.979 113.716 259.56 111.193C270.56 110.338 273.745 98.84 278.407 91.3921C278.547 90.9799 278.648 90.5677 278.717 90.1566C279.247 90.2615 279.805 90.1461 280.337 90.0632C280.909 89.9741 281.483 89.8849 282.061 89.8272C283.255 89.7066 284.461 89.6689 285.662 89.714C286.79 89.7559 287.913 89.8618 289.022 90.0538C289.629 90.1587 290.23 90.2856 290.827 90.4345C291.433 90.5856 292.102 90.8897 292.733 90.8562C292.759 90.8541 292.785 90.8488 292.811 90.8467C292.859 91.0282 292.912 91.2107 292.974 91.3921C297.638 98.84 300.823 110.338 311.821 111.193C332.403 113.716 337.094 109.512 339.133 91.0617C347.665 96.8828 347.477 91.5536 339.515 88.7931ZM275.954 91.7288C271.678 98.261 268.997 108.551 259.24 109.322C241.163 111.396 236.08 108.899 234.577 91.819C232.079 79.7342 248.339 81.8749 256.93 81.5298C264.54 81.2183 280.162 81.0022 275.954 91.7288ZM336.802 91.819C335.299 108.899 330.216 111.396 312.139 109.322C302.38 108.551 299.701 98.2621 295.425 91.7288C291.217 81.0012 306.839 81.2173 314.449 81.5298C323.04 81.8749 339.3 79.7352 336.802 91.819Z" fill="#43385A"/>
<path d="M246.424 72.2106C246.033 73.0108 246.846 73.8614 247.742 73.5814C250.502 72.7203 255.6 71.3621 259.383 71.7134C264.829 72.219 269.73 71.7134 270.003 68.4253C270.256 65.3595 250.621 63.6121 246.424 72.2106Z" fill="#7C4158"/>
<path d="M319.259 72.2106C319.65 73.0108 318.838 73.8614 317.94 73.5814C315.18 72.7203 310.082 71.3621 306.299 71.7134C300.853 72.219 295.952 71.7134 295.679 68.4253C295.426 65.3595 315.063 63.6121 319.259 72.2106Z" fill="#7C4158"/>
<path d="M300.623 124.322C291.256 130.34 280.27 131.298 270.318 125.74C269.813 125.522 269.365 126.078 269.746 126.454C277.385 133.001 290.235 132.896 298.654 127.613C299.47 127.119 302.901 124.602 300.623 124.322Z" fill="#B56850"/>
<path d="M289.786 141.867C289.415 141.462 288.577 141.444 288.042 141.429C287.498 141.414 286.942 141.493 286.414 141.61C285.914 141.722 285.418 141.905 284.978 142.152C284.754 142.276 284.558 142.423 284.358 142.576C284.269 142.646 284.173 142.719 284.112 142.813C284.068 142.914 284.056 142.938 284.078 142.886C284.095 142.855 284.087 142.856 284.054 142.89C284.001 142.933 283.946 142.973 283.893 143.015C283.607 143.241 283.971 143.601 284.276 143.467C284.334 143.441 284.393 143.418 284.453 143.392C284.618 143.402 284.776 143.34 284.942 143.309C285.16 143.269 285.376 143.227 285.593 143.185C285.706 143.163 285.818 143.141 285.931 143.123C286.062 143.102 286.069 143.102 286.16 143.091C286.306 143.075 286.45 143.051 286.596 143.034C286.594 143.035 286.77 143.019 286.794 143.017C287.223 142.984 287.656 142.994 288.085 143.016C288.186 143.021 288.286 143.031 288.386 143.038C288.492 143.049 288.5 143.049 288.41 143.039C288.516 143.054 288.622 143.066 288.729 143.077C289.059 143.103 289.315 143.112 289.629 142.979C290.121 142.772 290.074 142.184 289.786 141.867Z" fill="#D6896E"/>
<path d="M295.699 110.745C295.659 110.058 294.43 109.92 294.21 110.579C293.85 111.654 292.225 111.278 291.356 111.127C290.604 110.996 289.83 110.917 289.083 111.106C288.38 111.283 287.838 111.67 287.339 112.141C286.704 112.74 286.061 113.645 285.143 113.154C284.162 112.631 283.502 111.69 282.509 111.156C281.306 110.509 279.988 110.611 278.676 110.881C277.88 111.045 276.384 111.566 275.802 110.821C274.985 109.775 276.36 108.312 276.952 107.486C277.873 106.203 278.701 104.838 279.347 103.419C280.056 101.864 280.585 100.251 280.862 98.5859C281.145 96.8899 281.162 95.2065 281.124 93.4948C281.117 93.1602 280.506 93.1717 280.479 93.5021C280.348 95.132 279.941 96.7693 279.417 98.3299C278.893 99.8938 278.279 101.44 277.531 102.926C276.777 104.421 275.857 105.784 274.851 107.145C273.926 108.398 273.14 110.04 273.991 111.511C274.742 112.81 276.265 113.113 277.746 112.878C278.878 112.699 280.33 112.081 281.437 112.619C282.563 113.167 283.26 114.244 284.41 114.781C285.813 115.436 287.155 114.866 288.147 113.897C288.567 113.487 288.972 112.906 289.595 112.743C290.423 112.527 291.368 112.882 292.195 112.967C293.785 113.131 295.801 112.468 295.699 110.745Z" fill="#C67860"/>
</svg>
