<svg width="68" height="68" viewBox="0 0 68 68" fill="none" xmlns="http://www.w3.org/2000/svg">
<g clip-path="url(#clip0_1_759)">
<path d="M0 33.9998C0 15.2223 15.2223 0 33.9998 0C52.7773 0 67.9996 15.2223 68 33.9998C68 52.7773 52.7778 67.9996 33.9998 68C15.2223 68 0 52.7778 0 33.9998ZM33.9998 65.4813C51.3867 65.4813 65.4813 51.3867 65.4813 33.9998C65.4813 16.6129 51.3867 2.51826 33.9998 2.51873C16.6129 2.51873 2.51826 16.6134 2.51873 33.9998C2.51873 51.3867 16.6134 65.4813 33.9998 65.4813Z" fill="white"/>
<g clip-path="url(#clip1_1_759)">
<g clip-path="url(#clip2_1_759)">
<path d="M33.9771 35.1784C39.31 34.9863 44.6425 34.7939 49.9746 34.6019C48.9802 32.9582 48.7315 31.5203 46.8308 31.2724C43.9861 30.9025 41.1414 30.5314 38.2963 30.1603C32.7781 29.4413 27.2583 28.7224 21.7392 28.0038C22.2343 28.8027 29.9562 35.3228 33.9771 35.1784Z" fill="#C53683"/>
<path d="M14.3243 18.1754C16.0522 21.0312 24.7976 27.2546 27.2917 27.5749C34.1113 28.4528 40.9297 29.33 47.7489 30.2067C46.4137 28.0003 46.104 26.5274 43.691 25.8942C40.1871 24.973 36.6817 24.0514 33.1775 23.1306C26.8931 21.4794 20.6087 19.8274 14.3243 18.1754Z" fill="#C53683"/>
<path d="M39.1581 40.3779C43.2558 39.5047 47.3534 38.6311 51.4519 37.7571C50.6538 36.4404 50.6515 35.6482 49.1589 35.7151C46.7356 35.8226 44.3131 35.9312 41.8903 36.0386C37.4267 36.2377 32.963 36.4376 28.4998 36.6359C29.0015 37.1735 35.9439 41.0626 39.1581 40.3779Z" fill="#C53683"/>
<path d="M48.8283 49.8245C51.0812 48.3611 51.686 46.7862 52.9677 44.3913C54.4044 41.706 53.4623 41.3046 51.8576 38.6476C51.6935 38.3768 49.5587 38.7389 49.3182 39.0033C49.0251 39.3252 49.2206 41.1499 49.2025 41.5596C49.0774 44.3146 48.9527 47.07 48.8283 49.8245Z" fill="#C53683"/>
<path d="M48.3041 39.2918C46.8108 39.6101 44.9184 39.3669 44.5374 40.9559C43.9971 43.2131 43.4568 45.4715 42.9162 47.7287C46.5546 46.8594 48.1774 42.493 48.3041 39.2918Z" fill="#C53683"/>
<path d="M43.7063 40.344C40.1065 41.1126 40.182 42.1585 38.6383 45.5305C41.0859 45.2984 43.3699 42.6343 43.7063 40.344Z" fill="#C53683"/>
</g>
</g>
</g>
<defs>
<clipPath id="clip0_1_759">
<rect width="68" height="68" fill="white"/>
</clipPath>
<clipPath id="clip1_1_759">
<rect width="39.3515" height="31.6491" fill="white" transform="translate(14.3243 18.1754)"/>
</clipPath>
<clipPath id="clip2_1_759">
<rect width="39.3515" height="31.6491" fill="white" transform="translate(14.3243 18.1754)"/>
</clipPath>
</defs>
</svg>
